<?xml version="1.0" encoding="UTF-8"?>
<svg id="Layer_1" data-name="Layer 1" xmlns="http://www.w3.org/2000/svg" viewBox="0 0 593.03 374.72">
  <defs>
    <style>
      .cls-1, .cls-2 {
        fill: #1a2e59;
        stroke: #fff;
        stroke-miterlimit: 10;
        stroke-width: .25px;
      }

      .cls-2 {
        font-family: Manrope-Medium, Manrope;
        font-size: 32.28px;
        font-variation-settings: 'wght' 500;
        font-weight: 500;
        letter-spacing: .1em;
      }
    </style>
  </defs>
  <text class="cls-2" transform="translate(233.41 366.36)"><tspan x="0" y="0">GROUP</tspan></text>
  <g>
    <polygon class="cls-1" points="22.07 245.13 48.77 245.13 67.1 227.33 22.07 227.33 12.29 227.33 .12 227.33 .12 325.01 22.07 325.01 22.07 285.8 57.13 285.67 57.13 267.47 22.07 267.47 22.07 245.13"/>
    <polygon class="cls-1" points="59.94 325.01 81.89 325.01 109.78 267.74 138.36 325.01 161.11 325.01 109.78 226.6 59.94 325.01"/>
    <polygon class="cls-1" points="158.16 246.6 185.73 246.6 185.73 325.01 207.67 325.01 207.67 246.6 235.24 246.6 235.24 227.33 158.16 227.33 158.16 246.6"/>
    <polygon class="cls-1" points="312.05 266.27 270.97 266.27 270.97 227.33 249.02 227.33 249.02 325.01 270.97 325.01 270.97 285.54 312.05 285.54 312.05 325.01 334.13 325.01 334.13 227.33 312.05 227.33 312.05 266.27"/>
    <polygon class="cls-1" points="554.64 305.74 554.64 227.33 532.69 227.33 532.69 325.01 551.96 325.01 554.64 325.01 592.91 325.01 592.91 305.74 554.64 305.74"/>
    <polygon class="cls-1" points="493.97 246.76 513.53 227.29 457.58 227.29 440.58 246.96 440.58 325.01 513.53 325.01 513.53 305.54 463.14 305.57 463.14 285.75 484.47 285.75 501.17 269.06 461.6 269.06 461.6 246.76 493.97 246.76"/>
    <polygon class="cls-1" points="404.19 246.77 423.76 227.31 367.8 227.31 350.8 246.98 350.8 325.03 423.76 325.03 423.76 305.56 373.37 305.59 373.37 285.77 394.7 285.77 411.39 269.08 371.82 269.08 371.82 246.77 404.19 246.77"/>
  </g>
  <g>
    <polygon class="cls-1" points="334.05 79.15 334.57 78.64 334.86 78.94 352.72 74.32 345.96 67.44 359.61 54.04 374.1 68.79 391.84 64.21 370.93 42.92 369.3 41.26 357.53 29.27 297.01 88.71 297.01 88.71 313.34 54.12 313.28 53.4 313.7 53.36 321.57 36.68 311.97 37.47 310.39 18.41 331 16.71 338.82 .14 309.09 2.59 306.76 2.79 290.02 4.17 297 88.7 296.99 88.7 297 88.71 297 88.72 296.99 88.73 297 88.72 297 88.73 297 88.72 297.01 88.72 327.11 112.33 327.83 112.43 327.77 112.84 342.28 124.23 343.64 114.69 362.58 117.39 359.66 137.86 374.07 149.17 378.29 119.63 378.62 117.32 380.99 100.69 297.05 88.71 334.05 79.15"/>
    <polygon class="cls-1" points="267.13 113.71 266.74 113.56 252.49 125.27 261.51 128.66 254.78 146.57 235.42 139.29 221.27 150.92 249.2 161.42 251.38 162.24 267.11 168.15 296.96 88.73 267.39 113.03 267.13 113.71"/>
    <polygon class="cls-1" points="296.99 88.7 296.99 88.7 280.22 54.3 279.62 53.89 279.85 53.54 271.77 36.97 266.38 44.95 250.52 34.25 262.09 17.11 254.06 .64 237.37 25.37 236.06 27.31 226.66 41.23 296.99 88.7 259.56 80.69 258.87 80.92 258.74 80.52 240.71 76.66 243.67 85.83 225.47 91.71 219.11 72.04 201.19 68.2 210.37 96.59 211.09 98.81 216.25 114.8 296.96 88.71 297.56 126.97 297.93 127.6 297.57 127.81 297.86 146.25 306.13 141.31 315.95 157.73 298.21 168.34 298.49 186.66 324.1 171.34 326.1 170.14 340.52 161.52 296.97 88.71 296.99 88.7 296.99 88.7 296.99 88.7 296.99 88.7"/>
  </g>
</svg>