<?xml version="1.0" encoding="UTF-8" standalone="no"?>
<!DOCTYPE svg PUBLIC "-//W3C//DTD SVG 1.1//EN" "http://www.w3.org/Graphics/SVG/1.1/DTD/svg11.dtd">
<svg width="100%" height="100%" viewBox="0 0 4500 4500" version="1.1" xmlns="http://www.w3.org/2000/svg" xmlns:xlink="http://www.w3.org/1999/xlink" xml:space="preserve" xmlns:serif="http://www.serif.com/" style="fill-rule:evenodd;clip-rule:evenodd;stroke-linejoin:round;stroke-miterlimit:2;">
    <g transform="matrix(4.166667,0,0,4.166667,2223.15125,1769.610833)">
        <path d="M0,-6.192C-0.591,-1.538 0.058,2.519 0.29,6.558C1.7,31.136 1.606,55.747 2.059,80.346C2.117,83.509 0.895,84.816 -2.311,84.671C-14.143,84.134 -25.981,84.438 -37.816,84.566C-42.822,84.62 -43.25,84.11 -43.49,78.92C-44.94,47.548 -46.541,16.181 -49.827,-15.062C-51.628,-32.188 -54.275,-49.213 -57.208,-66.183C-57.804,-69.628 -56.832,-71.545 -53.54,-72.557C-40.631,-76.526 -28.36,-82.078 -16.205,-87.88C-13.444,-89.198 -11.619,-88.888 -9.525,-86.55C3.923,-71.538 17.261,-56.422 31.316,-41.967C32.731,-40.511 34.393,-37.514 35.874,-38.297C37.634,-39.227 36.387,-42.304 36.238,-44.451C35.454,-55.784 34.647,-67.115 33.866,-78.449C33.794,-79.498 33.786,-80.563 33.867,-81.612C34.329,-87.581 35.717,-89.013 41.526,-90.03C53.964,-92.209 66.475,-92.234 79.03,-91.557C82.331,-91.379 82.702,-89.385 82.697,-86.786C82.664,-70.142 82.598,-53.497 82.68,-36.854C82.821,-8.369 82.544,20.108 81.406,48.571C80.962,59.694 80.263,70.808 79.778,81.93C79.646,84.951 78.213,86.042 75.326,85.974C63.846,85.704 52.365,85.435 40.882,85.341C37.468,85.314 36.357,83.891 36.484,80.63C37.059,65.985 36.997,51.337 36.341,36.694C36.29,35.54 36.499,34.309 35.661,33.322C24.746,20.484 15.093,6.524 2.108,-4.476C1.574,-4.928 1.023,-5.36 0,-6.192" style="fill:rgb(17,61,55);fill-rule:nonzero;"/>
    </g>
    <g transform="matrix(4.166667,0,0,4.166667,1026.857917,2093.010417)">
        <path d="M0,-109.277C0.073,-111.749 0.963,-112.812 2.781,-113.449C40.579,-126.701 78.412,-139.824 117.174,-150.085C126.665,-152.598 125.595,-152.46 127.975,-143.995C131.145,-132.721 134.049,-121.372 137.061,-110.054C137.751,-107.461 137.143,-105.934 134.136,-105.329C122.426,-102.968 110.773,-100.319 99.066,-97.941C95.892,-97.295 95.35,-96.16 96.307,-92.991C108.226,-53.531 120.564,-14.204 133.334,24.989C134.716,29.23 134.266,29.951 129.878,31.109C117.755,34.309 105.739,37.861 93.894,41.982C90.046,43.321 88.903,42.63 87.875,38.775C77.309,-0.851 65.679,-40.164 53.269,-79.25C52.545,-81.528 51.73,-81.871 49.579,-81.019C39.784,-77.139 29.933,-73.399 20.094,-69.631C14.604,-67.529 14.564,-67.576 12.625,-73.038C8.826,-83.739 4.996,-94.43 1.209,-105.135C0.666,-106.671 0.292,-108.267 0,-109.277" style="fill:rgb(17,61,55);fill-rule:nonzero;"/>
    </g>
    <g transform="matrix(4.166667,0,0,4.166667,2592.85375,2393.806667)">
        <path d="M0,75.365C0.148,76.3 0.1,77.168 -0.284,78.094C-14.914,113.334 -56.203,128.062 -89.357,109.744C-99.473,104.154 -107.283,95.986 -112.392,85.737C-129.313,51.79 -129.167,17.757 -109.715,-14.931C-88.575,-50.456 -43.827,-52.697 -16,-31.243C-5.413,-23.082 1.051,-12.15 6.14,-0.153C6.811,1.429 6.582,2.803 5.477,4.074C4.969,5.7 3.696,6.396 2.202,6.961C-7.774,10.736 -17.981,13.835 -28.043,17.359C-31.121,18.437 -33.353,17.294 -34.823,14.119C-37.1,9.2 -39.515,4.367 -44.051,1.082C-53.296,-5.613 -64.438,-3.965 -71.489,5.009C-77.09,12.139 -79.91,20.396 -81.096,29.217C-82.338,38.464 -81.928,47.656 -79.009,56.624C-77.658,60.775 -75.86,64.722 -73.279,68.236C-66.342,77.678 -55.141,78.798 -46.367,71.031C-43.25,68.272 -40.982,64.875 -38.912,61.317C-36.661,57.45 -35.277,57.027 -31.193,58.912C-21.836,63.232 -12.53,67.665 -3.05,71.716C-1.459,72.396 0.385,72.981 0,75.365" style="fill:rgb(17,61,55);fill-rule:nonzero;"/>
    </g>
    <g transform="matrix(4.166667,0,0,4.166667,1950.470417,1467.79125)">
        <path d="M0,158.39C-0.048,160.197 -0.902,161.708 -3.398,161.995C-15.971,163.44 -28.498,165.223 -40.952,167.481C-44.078,168.048 -45.37,166.819 -45.886,163.732C-50.58,135.652 -55.21,107.56 -60.212,79.534C-64.534,55.318 -69.316,31.184 -73.89,7.012C-74.686,2.808 -74.281,2.142 -70.133,1.188C-54.724,-2.357 -39.362,-6.124 -23.776,-8.849C-19.144,-9.658 -18.59,-9.178 -18.033,-4.449C-12.405,43.359 -7.974,91.299 -2.058,139.075C-1.281,145.348 -0.713,151.646 0,158.39" style="fill:rgb(17,61,55);fill-rule:nonzero;"/>
    </g>
    <g transform="matrix(4.166667,0,0,4.166667,3473.114167,2206.439583)">
        <path d="M0,-153.943C-1.669,-146.053 -3.401,-137.8 -5.164,-129.552C-14.322,-86.704 -24.506,-44.098 -35.403,-1.661C-36.19,1.402 -37.097,4.435 -37.892,7.497C-38.54,9.994 -40.072,11.037 -42.582,10.422C-53.847,7.659 -65.112,4.897 -76.358,2.058C-78.845,1.43 -78.604,-0.548 -78.191,-2.501C-74.649,-19.223 -70.982,-35.919 -67.613,-52.676C-60.386,-88.615 -53.771,-124.666 -48.732,-160.988C-48.358,-163.687 -47.28,-164.98 -44.351,-164.541C-30.68,-162.49 -16.978,-160.641 -3.411,-157.944C-1.345,-157.533 0.118,-156.71 0,-153.943" style="fill:rgb(17,61,55);fill-rule:nonzero;"/>
    </g>
    <g transform="matrix(4.166667,0,0,4.166667,2852.375417,1594.213333)">
        <path d="M0,85.093C-0.108,85.138 -0.218,85.18 -0.326,85.224C-7.505,88.112 -8.243,87.579 -7.677,79.92C-7.642,79.453 -7.627,78.984 -7.598,78.516C-5.932,53.632 -4.277,28.747 -2.603,3.862C-2.312,-0.467 -1.967,-0.697 2.258,0.208C17.665,3.507 30.739,19.998 31.237,36.759C31.812,56.094 17.909,77.607 0,85.093M73.519,30.953C72.068,3.159 59.346,-17.953 35.943,-32.922C17.608,-44.648 -2.562,-48.917 -24.004,-48.756C-29.143,-48.399 -34.28,-47.837 -39.424,-47.756C-43.089,-47.699 -44.163,-46.238 -44.281,-42.663C-45.134,-16.792 -46.177,9.072 -47.186,34.937C-48.368,65.246 -49.572,95.554 -50.786,125.861C-50.869,127.95 -50.072,129.18 -47.935,129.518C-42.847,130.321 -37.788,131.347 -32.68,131.973C-16.035,134.01 0.307,133.202 15.891,126.205C51.835,110.067 75.601,70.803 73.519,30.953" style="fill:rgb(17,61,55);fill-rule:nonzero;"/>
    </g>
    <g transform="matrix(4.166667,0,0,4.166667,1713.852083,2464.771667)">
        <path d="M0,74.358C-3.144,77.634 -6.596,80.286 -11.149,81.204C-20.038,82.994 -27.946,76.402 -27.696,66.836C-27.654,61.973 -24.48,58.063 -21.281,54.148C-20.291,52.937 -19.606,53.484 -18.719,54.273C-12.53,59.787 -6.341,65.301 -0.076,70.727C1.466,72.063 1.374,72.926 0,74.358M-26.465,-8.59C-25.786,-11.397 -24.19,-13.403 -21.427,-14.385C-16.619,-16.094 -12.48,-13 -12.579,-6.868C-13.113,-2.482 -16.285,1.387 -19.585,5.186C-20.097,5.777 -20.536,5.491 -21.072,5.137C-24.502,2.871 -27.438,-4.567 -26.465,-8.59M61.553,78.601C57.198,75.047 53.061,71.224 48.69,67.691C46.461,65.889 45.801,64.356 47.261,61.521C50.421,55.386 53.079,48.993 56.007,42.736C57.107,40.388 56.658,38.921 54.269,37.615C47.183,33.739 40.206,29.661 33.202,25.636C30.156,23.886 28.76,24.326 27.22,27.61C25.181,31.957 23.06,36.266 21.12,40.656C20.268,42.585 19.576,43.295 17.731,41.547C13.65,37.68 9.474,33.91 5.239,30.214C3.629,28.808 3.585,27.724 5.031,26.184C8.57,22.415 11.572,18.22 14.246,13.801C21.526,1.771 24.178,-11.034 19.377,-24.543C14.595,-37.998 1.686,-45.705 -17.498,-45.66C-20.51,-45.617 -26.144,-44.576 -31.65,-42.885C-52.274,-36.555 -63.644,-17.289 -59.2,3.697C-57.332,12.519 -53.088,20.127 -47.11,26.758C-45.149,28.934 -44.457,30.44 -47.054,32.689C-49.243,34.585 -51.018,36.996 -52.809,39.308C-59.346,47.75 -63.761,57.088 -63.742,67.978C-63.69,98.414 -36.83,120.063 -6.597,114.207C5.806,111.805 16.083,105.613 24.815,96.712C26.487,95.008 27.518,94.86 29.3,96.507C32.564,99.525 36.209,102.136 39.427,105.199C41.674,107.338 43.084,107.323 45.078,104.86C50.603,98.033 56.27,91.315 62.06,84.711C64.216,82.251 63.985,80.585 61.553,78.601" style="fill:rgb(17,61,55);fill-rule:nonzero;"/>
    </g>
    <g transform="matrix(4.166667,0,0,4.166667,3101.625,2414.990833)">
        <path d="M0,93.631C7.134,81.038 11.719,67.591 13.226,53.186C13.967,46.102 14.297,39.062 14.131,32.08C12.863,24.092 10.961,16.03 8.295,8.039C-3.275,10.231 -10.953,0.108 -10.953,0.108C-33.148,15.18 -39.451,-5.098 -39.451,-5.098C-58.358,1.205 -53.7,-16.236 -53.7,-16.236C-72.608,-13.4 -64.387,-36.337 -64.387,-36.337C-65.579,-36.422 -66.601,-36.676 -67.491,-37.05C-76.124,-33.325 -83.907,-27.334 -90.01,-19.224C-107.965,4.637 -114.936,32.152 -113.824,61.813C-113.65,66.46 -113.204,71.04 -112.447,75.532C-112.193,76.277 -111.94,77.021 -111.708,77.773C-105.247,98.751 -92.055,113.421 -71.133,120.652C-42.114,130.681 -15.149,120.371 0,93.631" style="fill:rgb(17,61,55);fill-rule:nonzero;"/>
    </g>
    <g transform="matrix(4.166667,0,0,4.166667,1594.87125,3124.821667)">
        <path d="M0,-10.722C1.116,-4.557 1.673,-1.474 2.789,4.692C0.788,5.054 -0.213,5.238 -2.213,5.61C-3.362,-0.561 -3.937,-3.646 -5.086,-9.817C-6.815,-9.506 -7.679,-9.349 -9.407,-9.031C-9.773,-11.011 -9.956,-12.002 -10.322,-13.982C-5.092,-14.957 -2.474,-15.427 2.765,-16.332C3.107,-14.336 3.278,-13.338 3.62,-11.342C2.172,-11.097 1.448,-10.973 0,-10.722" style="fill:rgb(17,61,55);fill-rule:nonzero;"/>
    </g>
    <g transform="matrix(4.166667,0,0,4.166667,1634.868333,3134.361667)">
        <path d="M0,-18.844C0.804,-14.123 1.206,-11.763 2.009,-7.042C4.018,-7.384 5.023,-7.552 7.033,-7.884C6.24,-12.686 5.844,-15.087 5.051,-19.889C7.097,-20.227 8.12,-20.393 10.167,-20.72C11.509,-12.323 12.179,-8.124 13.521,0.273C11.517,0.593 10.515,0.756 8.513,1.086C8.249,-0.514 8.116,-1.315 7.852,-2.916C5.853,-2.586 4.853,-2.418 2.854,-2.078C3.065,-0.842 3.17,-0.225 3.38,1.011C1.377,1.352 0.376,1.525 -1.626,1.876C-3.019,-6.059 -3.716,-10.026 -5.108,-17.961C-3.066,-18.319 -2.044,-18.496 0,-18.844" style="fill:rgb(17,61,55);fill-rule:nonzero;"/>
    </g>
    <g transform="matrix(4.166667,0,0,4.166667,1740.905,3110.823333)">
        <path d="M0,-12.164C-2.689,-11.797 -4.033,-11.609 -6.72,-11.224C-6.504,-9.797 -6.395,-9.083 -6.179,-7.656C-4.531,-7.906 -3.707,-8.029 -2.059,-8.273C-1.765,-6.28 -1.618,-5.284 -1.324,-3.291C-2.964,-3.049 -3.784,-2.927 -5.423,-2.678C-5.311,-1.937 -5.254,-1.566 -5.142,-0.825C-2.553,-1.218 -1.259,-1.41 1.332,-1.786L2.055,3.197C-2.531,3.863 -4.823,4.209 -9.403,4.928C-10.678,-3.197 -11.316,-7.259 -12.592,-15.383C-7.843,-16.095 -5.468,-16.437 -0.714,-17.092C-0.428,-15.121 -0.286,-14.135 0,-12.164" style="fill:rgb(17,61,55);fill-rule:nonzero;"/>
    </g>
    <g transform="matrix(4.166667,0,0,4.166667,1834.244583,3087.228333)">
        <path d="M0,-8.363C-0.272,-8.706 -0.558,-8.962 -0.858,-9.132C-1.157,-9.302 -1.538,-9.424 -1.998,-9.498C-2.458,-9.572 -3.021,-9.534 -3.669,-9.374C-4.542,-9.158 -5.189,-8.689 -5.599,-7.987C-6.009,-7.287 -6.248,-6.494 -6.316,-5.611C-6.384,-4.728 -6.312,-3.835 -6.1,-2.932C-5.888,-2.028 -5.59,-1.272 -5.206,-0.663C-4.823,-0.054 -4.362,0.423 -3.822,0.768C-3.284,1.113 -2.687,1.234 -2.035,1.134C-1.345,1.028 -0.825,0.805 -0.478,0.46C-0.13,0.118 0.117,-0.237 0.262,-0.603C0.407,-0.968 0.483,-1.442 0.488,-2.025C2.528,-2.185 3.548,-2.263 5.589,-2.412C5.6,-1.661 5.558,-1.004 5.463,-0.439C5.368,0.127 5.199,0.75 4.957,1.43C4.714,2.11 4.342,2.768 3.84,3.404C3.338,4.04 2.677,4.601 1.856,5.089C1.035,5.576 0.006,5.909 -1.213,6.106C-2.137,6.254 -3.015,6.266 -3.837,6.126C-4.661,5.985 -5.423,5.729 -6.126,5.358C-6.829,4.986 -7.47,4.512 -8.049,3.935C-8.629,3.359 -9.136,2.706 -9.577,1.996C-10.124,1.113 -10.569,0.135 -10.884,-0.934C-11.199,-2.001 -11.388,-3.086 -11.45,-4.188C-11.511,-5.29 -11.436,-6.372 -11.222,-7.436C-11.008,-8.499 -10.639,-9.49 -10.114,-10.405C-9.589,-11.321 -8.897,-12.117 -8.038,-12.793C-7.179,-13.468 -6.149,-13.957 -4.95,-14.259C-3.902,-14.523 -2.938,-14.629 -2.063,-14.578C-1.187,-14.526 -0.406,-14.382 0.278,-14.146C0.962,-13.91 1.562,-13.615 2.076,-13.263C2.591,-12.911 3.016,-12.567 3.355,-12.232C3.692,-11.896 4.023,-11.494 4.348,-11.025C2.604,-9.964 1.735,-9.432 0,-8.363" style="fill:rgb(17,61,55);fill-rule:nonzero;"/>
    </g>
    <g transform="matrix(4.166667,0,0,4.166667,1886.325833,3059.911667)">
        <path d="M0,0.263C0.602,0.009 1.111,-0.313 1.527,-0.706C1.943,-1.098 2.252,-1.51 2.455,-1.945C2.656,-2.379 2.753,-2.816 2.745,-3.255C2.736,-3.695 2.607,-4.095 2.358,-4.452C2.109,-4.81 1.737,-5.104 1.243,-5.331C0.748,-5.559 0.115,-5.678 -0.654,-5.687C-0.392,-3.307 -0.261,-2.117 0,0.263M4.005,3.741C4.414,4.016 4.96,4.231 5.64,4.384C6.32,4.538 7.173,4.525 8.198,4.345C8.516,6.337 8.674,7.334 8.99,9.326C8.024,9.481 7.132,9.539 6.317,9.503C5.501,9.466 4.752,9.362 4.073,9.191C3.394,9.02 2.783,8.795 2.241,8.517C1.7,8.237 1.221,7.933 0.806,7.603C0.921,8.649 0.979,9.172 1.094,10.218C-0.946,10.442 -1.965,10.556 -4.003,10.791C-4.962,2.465 -5.441,-1.698 -6.399,-10.023C-5.429,-10.154 -4.433,-10.271 -3.412,-10.377C-2.391,-10.482 -1.383,-10.528 -0.388,-10.515C0.607,-10.501 1.564,-10.392 2.482,-10.19C3.4,-9.987 4.225,-9.647 4.958,-9.171C5.69,-8.694 6.305,-8.049 6.801,-7.237C7.297,-6.426 7.631,-5.396 7.79,-4.161C7.89,-3.387 7.87,-2.618 7.737,-1.864C7.603,-1.11 7.372,-0.393 7.041,0.288C6.711,0.969 6.286,1.603 5.767,2.192C5.248,2.78 4.66,3.297 4.005,3.741" style="fill:rgb(17,61,55);fill-rule:nonzero;"/>
    </g>
    <g transform="matrix(4.166667,0,0,4.166667,1948.06,3089.740417)">
        <path d="M0,-17.122C-0.074,-16.273 -0.126,-15.499 -0.156,-14.803C-0.187,-14.108 -0.203,-13.319 -0.205,-12.439C-0.208,-11.558 -0.181,-10.666 -0.124,-9.763C-0.067,-8.859 0.036,-7.975 0.185,-7.109C0.333,-6.242 0.544,-5.48 0.815,-4.822C1.085,-4.164 1.428,-3.648 1.842,-3.275C2.256,-2.902 2.77,-2.763 3.361,-2.826C3.896,-2.884 4.356,-3.071 4.714,-3.412C5.072,-3.753 5.364,-4.186 5.592,-4.711C5.82,-5.236 5.98,-5.835 6.072,-6.506C6.164,-7.176 6.207,-7.869 6.201,-8.578C6.194,-9.511 6.14,-10.46 6.036,-11.423C5.931,-12.385 5.808,-13.299 5.664,-14.165C5.52,-15.03 5.369,-15.816 5.21,-16.522C5.052,-17.227 4.915,-17.789 4.801,-18.209C6.797,-18.712 7.797,-18.961 9.797,-19.454C9.914,-18.978 10.063,-18.344 10.244,-17.556C10.426,-16.766 10.599,-15.886 10.766,-14.919C10.932,-13.951 11.074,-12.912 11.184,-11.809C11.294,-10.706 11.336,-9.608 11.316,-8.522C11.29,-7.211 11.161,-5.941 10.923,-4.713C10.684,-3.486 10.28,-2.39 9.712,-1.424C9.143,-0.458 8.388,0.346 7.447,0.991C6.503,1.635 5.313,2.022 3.906,2.18C2.554,2.332 1.372,2.18 0.382,1.691C-0.608,1.202 -1.444,0.51 -2.127,-0.384C-2.81,-1.278 -3.359,-2.319 -3.77,-3.506C-4.183,-4.694 -4.5,-5.923 -4.722,-7.194C-4.944,-8.465 -5.092,-9.716 -5.167,-10.944C-5.242,-12.173 -5.275,-13.276 -5.267,-14.251C-5.259,-15.227 -5.231,-16.017 -5.185,-16.621C-5.14,-17.225 -5.117,-17.537 -5.119,-17.555C-3.07,-17.387 -2.046,-17.301 0,-17.122" style="fill:rgb(17,61,55);fill-rule:nonzero;"/>
    </g>
    <g transform="matrix(4.166667,0,0,4.166667,2007.230417,3007.675)">
        <path d="M0,19.665C-0.585,12.461 -0.878,8.858 -1.464,1.654C0.595,1.487 1.624,1.406 3.684,1.249C6.477,4.986 7.861,6.86 10.607,10.616C10.32,6.508 10.176,4.455 9.889,0.347C11.95,0.203 12.981,0.134 15.042,0C15.539,7.671 15.787,11.506 16.284,19.177C14.262,19.308 13.251,19.376 11.229,19.517C8.539,16.228 7.183,14.588 4.45,11.318C4.692,14.498 4.814,16.087 5.056,19.267C3.033,19.421 2.022,19.501 0,19.665" style="fill:rgb(17,61,55);fill-rule:nonzero;"/>
    </g>
    <g transform="matrix(4.166667,0,0,4.166667,2129.0475,3060.115833)">
        <path d="M0,-7.971C-0.247,-8.332 -0.514,-8.608 -0.8,-8.798C-1.086,-8.989 -1.457,-9.138 -1.91,-9.244C-2.364,-9.351 -2.927,-9.353 -3.584,-9.238C-4.468,-9.085 -5.145,-8.662 -5.602,-7.992C-6.06,-7.322 -6.354,-6.549 -6.484,-5.673C-6.615,-4.797 -6.606,-3.901 -6.457,-2.984C-6.31,-2.068 -6.067,-1.293 -5.728,-0.659C-5.389,-0.023 -4.963,0.484 -4.45,0.867C-3.938,1.249 -3.353,1.412 -2.696,1.358C-2.002,1.301 -1.468,1.115 -1.098,0.796C-0.727,0.479 -0.457,0.143 -0.285,-0.212C-0.115,-0.566 -0.007,-1.033 0.039,-1.615C2.083,-1.63 3.104,-1.635 5.147,-1.64C5.105,-0.89 5.018,-0.237 4.883,0.319C4.748,0.877 4.536,1.487 4.247,2.148C3.958,2.809 3.541,3.439 2.996,4.038C2.451,4.637 1.753,5.15 0.901,5.578C0.049,6.006 -0.999,6.266 -2.228,6.375C-3.158,6.458 -4.033,6.409 -4.843,6.21C-5.653,6.011 -6.394,5.702 -7.068,5.282C-7.741,4.862 -8.347,4.343 -8.883,3.727C-9.419,3.112 -9.879,2.424 -10.267,1.685C-10.75,0.765 -11.124,-0.243 -11.363,-1.33C-11.601,-2.417 -11.714,-3.512 -11.697,-4.616C-11.681,-5.72 -11.53,-6.794 -11.242,-7.84C-10.954,-8.885 -10.517,-9.847 -9.929,-10.723C-9.342,-11.6 -8.597,-12.345 -7.694,-12.958C-6.791,-13.571 -5.731,-13.986 -4.516,-14.203C-3.453,-14.392 -2.486,-14.429 -1.618,-14.316C-0.749,-14.202 0.019,-14.003 0.684,-13.72C1.349,-13.436 1.925,-13.099 2.413,-12.712C2.9,-12.325 3.3,-11.952 3.613,-11.593C3.926,-11.234 4.228,-10.81 4.518,-10.319C2.706,-9.384 1.803,-8.914 0,-7.971" style="fill:rgb(17,61,55);fill-rule:nonzero;"/>
    </g>
    <g transform="matrix(4.166667,0,0,4.166667,2178.053333,3083.937917)">
        <path d="M0,-20.321C0.186,-15.536 0.28,-13.143 0.466,-8.358C2.495,-8.437 3.509,-8.474 5.539,-8.543C5.374,-13.407 5.292,-15.839 5.127,-20.704C7.193,-20.773 8.226,-20.806 10.291,-20.865C10.536,-12.365 10.658,-8.115 10.902,0.385C8.88,0.443 7.868,0.475 5.846,0.544C5.791,-1.078 5.764,-1.889 5.709,-3.51C3.69,-3.442 2.681,-3.405 0.662,-3.326C0.711,-2.074 0.735,-1.448 0.784,-0.196C-1.24,-0.117 -2.252,-0.075 -4.275,0.014C-4.63,-8.034 -4.807,-12.059 -5.162,-20.107C-3.097,-20.198 -2.065,-20.241 0,-20.321" style="fill:rgb(17,61,55);fill-rule:nonzero;"/>
    </g>
    <g transform="matrix(4.166667,0,0,4.166667,2307.942917,3055.595833)">
        <path d="M0,-8.434C-0.135,-8.619 -0.308,-8.797 -0.518,-8.961C-0.708,-9.109 -0.963,-9.237 -1.278,-9.345C-1.593,-9.454 -1.989,-9.507 -2.465,-9.501C-2.675,-9.499 -2.888,-9.455 -3.107,-9.369C-3.325,-9.283 -3.476,-9.178 -3.56,-9.056C-3.644,-8.933 -3.637,-8.794 -3.541,-8.636C-3.444,-8.479 -3.176,-8.328 -2.736,-8.184C-2.564,-8.111 -2.393,-8.048 -2.221,-7.994C-2.049,-7.939 -1.887,-7.866 -1.734,-7.774C-0.932,-7.447 -0.122,-7.03 0.699,-6.523C1.519,-6.016 2.205,-5.405 2.759,-4.704C3.346,-3.962 3.756,-3.184 3.977,-2.374C4.198,-1.564 4.276,-0.762 4.214,0.031C4.151,0.823 3.951,1.579 3.615,2.299C3.28,3.019 2.841,3.664 2.3,4.236C1.759,4.808 1.124,5.283 0.395,5.662C-0.332,6.04 -1.122,6.268 -1.96,6.354C-2.538,6.414 -3.122,6.413 -3.703,6.346C-4.285,6.278 -4.858,6.127 -5.424,5.892C-6.367,5.533 -7.206,4.977 -7.941,4.224C-8.677,3.471 -9.234,2.493 -9.614,1.287C-7.693,0.614 -6.73,0.281 -4.803,-0.382C-4.626,0.156 -4.315,0.539 -3.869,0.767C-3.424,0.995 -2.952,1.082 -2.466,1.045C-2.15,1.02 -1.827,0.922 -1.508,0.741C-1.19,0.561 -1.004,0.277 -0.979,-0.089C-0.956,-0.435 -1.042,-0.764 -1.214,-1.052C-1.387,-1.339 -1.607,-1.598 -1.874,-1.829C-2.141,-2.059 -2.431,-2.261 -2.745,-2.435C-3.059,-2.608 -3.358,-2.75 -3.643,-2.859C-3.796,-2.913 -3.928,-2.962 -4.043,-3.007C-4.156,-3.052 -4.27,-3.093 -4.384,-3.129C-5.659,-3.597 -6.652,-4.208 -7.365,-4.961C-8.078,-5.715 -8.547,-6.518 -8.77,-7.373C-8.995,-8.227 -8.999,-9.09 -8.786,-9.96C-8.572,-10.831 -8.18,-11.625 -7.609,-12.344C-7.037,-13.061 -6.319,-13.645 -5.455,-14.095C-4.591,-14.545 -3.612,-14.787 -2.522,-14.816C-1.297,-14.848 -0.247,-14.67 0.627,-14.285C1.5,-13.9 2.22,-13.47 2.786,-12.998C3.352,-12.526 3.904,-11.899 4.441,-11.117C2.66,-10.048 1.772,-9.511 0,-8.434" style="fill:rgb(17,61,55);fill-rule:nonzero;"/>
    </g>
    <g transform="matrix(-4.03152,-1.052594,-1.052594,4.03152,2324.43473,3076.639473)">
        <path d="M-2.598,-19.963C-4.557,-12.357 -5.537,-8.553 -7.496,-0.946C-5.536,-0.442 -4.556,-0.187 -2.598,0.329C-0.6,-7.268 0.399,-11.066 2.397,-18.663C0.401,-19.188 -0.599,-19.448 -2.598,-19.963" style="fill:rgb(17,61,55);fill-rule:nonzero;"/>
    </g>
    <g transform="matrix(4.166667,0,0,4.166667,2386.969583,3017.55875)">
        <path d="M0,9.112C0.982,9.011 1.825,8.728 2.53,8.261C3.234,7.795 3.781,7.243 4.169,6.606C4.556,5.969 4.781,5.287 4.839,4.56C4.898,3.833 4.766,3.154 4.443,2.525C4.121,1.896 3.601,1.362 2.884,0.923C2.168,0.484 1.238,0.229 0.097,0.161C0.058,3.741 0.039,5.531 0,9.112M0.159,-5.545C0.617,-5.503 1.243,-5.374 2.035,-5.159C2.825,-4.944 3.654,-4.611 4.517,-4.16C5.379,-3.708 6.225,-3.12 7.052,-2.397C7.878,-1.674 8.557,-0.784 9.089,0.271C9.437,0.93 9.694,1.626 9.859,2.356C10.025,3.088 10.1,3.817 10.085,4.543C10.059,5.812 9.812,6.944 9.348,7.942C8.884,8.94 8.301,9.815 7.599,10.566C6.897,11.318 6.138,11.958 5.321,12.485C4.504,13.013 3.728,13.44 2.992,13.765C2.255,14.09 1.604,14.329 1.04,14.481C0.475,14.633 0.109,14.699 -0.06,14.678C-2.086,14.656 -3.099,14.648 -5.125,14.636C-5.078,6.547 -5.055,2.502 -5.009,-5.587C-2.942,-5.576 -1.908,-5.567 0.159,-5.545" style="fill:rgb(17,61,55);fill-rule:nonzero;"/>
    </g>
    <g transform="matrix(4.166667,0,0,4.166667,2488.135417,3061.349167)">
        <path d="M0,-10.076C-2.705,-10.193 -4.057,-10.247 -6.763,-10.345C-6.803,-8.902 -6.824,-8.181 -6.864,-6.738C-5.203,-6.691 -4.373,-6.666 -2.712,-6.612C-2.777,-4.599 -2.81,-3.593 -2.875,-1.58C-4.527,-1.633 -5.353,-1.658 -7.006,-1.705C-7.027,-0.955 -7.038,-0.581 -7.059,0.169C-4.448,0.242 -3.143,0.283 -0.533,0.374C-0.603,2.387 -0.638,3.393 -0.708,5.406C-5.328,5.246 -7.639,5.179 -12.26,5.073C-12.07,-3.149 -11.976,-7.26 -11.787,-15.482C-7.002,-15.338 -4.609,-15.252 0.173,-15.052C0.104,-13.062 0.069,-12.066 0,-10.076" style="fill:rgb(17,61,55);fill-rule:nonzero;"/>
    </g>
    <g transform="matrix(4.166667,0,0,4.166667,2585.69625,3057.86875)">
        <path d="M0,-7.583C-0.386,-8.055 -0.879,-8.442 -1.398,-8.734C-1.917,-9.026 -2.492,-9.19 -3.121,-9.224C-3.733,-9.258 -4.318,-9.159 -4.876,-8.926C-5.433,-8.693 -5.925,-8.357 -6.348,-7.933C-6.827,-7.451 -7.219,-6.875 -7.511,-6.205C-7.803,-5.534 -7.968,-4.806 -8.007,-4.02C-8.047,-3.233 -7.956,-2.502 -7.734,-1.824C-7.512,-1.147 -7.172,-0.541 -6.759,-0.015C-6.385,0.461 -5.937,0.864 -5.413,1.155C-4.888,1.445 -4.324,1.607 -3.719,1.64C-3.096,1.675 -2.514,1.576 -1.97,1.344C-1.427,1.113 -0.906,0.775 -0.461,0.332C0.003,-0.13 0.383,-0.712 0.678,-1.361C0.973,-2.01 1.145,-2.727 1.192,-3.514C1.239,-4.299 1.154,-5.041 0.938,-5.739C0.721,-6.438 0.412,-7.08 0,-7.583M-2.831,-14.251C-1.435,-14.174 -0.15,-13.821 1.021,-13.191C2.192,-12.562 3.208,-11.715 4.057,-10.653C4.856,-9.655 5.452,-8.515 5.848,-7.247C6.244,-5.979 6.393,-4.628 6.3,-3.196C6.21,-1.799 5.888,-0.494 5.337,0.723C4.786,1.939 4.053,2.986 3.156,3.864C2.191,4.808 1.103,5.537 -0.112,6.035C-1.326,6.533 -2.615,6.744 -3.982,6.669C-5.331,6.594 -6.576,6.244 -7.718,5.616C-8.861,4.988 -9.858,4.143 -10.712,3.1C-11.507,2.129 -12.131,1.007 -12.564,-0.263C-12.997,-1.533 -13.183,-2.867 -13.12,-4.265C-13.055,-5.699 -12.748,-7.024 -12.196,-8.241C-11.645,-9.457 -10.918,-10.523 -10.014,-11.428C-9.053,-12.39 -7.956,-13.121 -6.733,-13.618C-5.51,-14.116 -4.208,-14.327 -2.831,-14.251" style="fill:rgb(17,61,55);fill-rule:nonzero;"/>
    </g>
    <g transform="matrix(4.166667,0,0,4.166667,2669.252083,3065.699583)">
        <path d="M0,-8.746C-2.407,-8.901 -3.611,-8.975 -6.019,-9.115C-6.112,-7.832 -6.158,-7.19 -6.251,-5.906C-4.57,-5.774 -3.729,-5.706 -2.049,-5.566C-2.22,-3.481 -2.305,-2.438 -2.476,-0.353C-4.136,-0.502 -4.966,-0.575 -6.626,-0.717C-6.819,1.961 -6.916,3.3 -7.109,5.979C-9.164,5.831 -10.192,5.759 -12.247,5.621C-11.701,-2.517 -11.428,-6.587 -10.883,-14.725C-8.953,-14.596 -7.087,-14.465 -5.282,-14.334C-3.477,-14.203 -1.619,-14.082 0.293,-13.97C0.176,-11.88 0.118,-10.836 0,-8.746" style="fill:rgb(17,61,55);fill-rule:nonzero;"/>
    </g>
    <g transform="matrix(4.166667,0,0,4.166667,2752.391667,3072.96)">
        <path d="M0,-7.8C-0.115,-7.998 -0.268,-8.194 -0.46,-8.379C-0.633,-8.546 -0.874,-8.701 -1.176,-8.842C-1.478,-8.984 -1.867,-9.078 -2.341,-9.123C-2.55,-9.143 -2.767,-9.122 -2.993,-9.059C-3.22,-8.997 -3.381,-8.909 -3.478,-8.796C-3.574,-8.683 -3.583,-8.544 -3.503,-8.377C-3.424,-8.21 -3.173,-8.032 -2.75,-7.842C-2.587,-7.751 -2.423,-7.67 -2.258,-7.598C-2.092,-7.526 -1.939,-7.436 -1.796,-7.328C-1.033,-6.918 -0.27,-6.417 0.493,-5.826C1.256,-5.235 1.874,-4.554 2.351,-3.798C2.856,-2.998 3.182,-2.181 3.317,-1.352C3.451,-0.523 3.444,0.283 3.297,1.065C3.151,1.846 2.871,2.576 2.461,3.256C2.051,3.936 1.546,4.531 0.946,5.043C0.346,5.554 -0.336,5.959 -1.101,6.259C-1.866,6.557 -2.676,6.7 -3.52,6.697C-4.102,6.694 -4.682,6.632 -5.254,6.504C-5.826,6.374 -6.381,6.163 -6.919,5.87C-7.819,5.412 -8.596,4.77 -9.247,3.944C-9.899,3.117 -10.351,2.085 -10.601,0.845C-8.617,0.381 -7.624,0.151 -5.635,-0.303C-5.517,0.251 -5.247,0.665 -4.828,0.938C-4.409,1.212 -3.948,1.349 -3.46,1.363C-3.143,1.373 -2.811,1.309 -2.475,1.163C-2.139,1.018 -1.924,0.755 -1.86,0.394C-1.8,0.052 -1.851,-0.284 -1.992,-0.588C-2.133,-0.892 -2.325,-1.173 -2.566,-1.431C-2.808,-1.688 -3.074,-1.92 -3.369,-2.126C-3.663,-2.332 -3.946,-2.505 -4.218,-2.643C-4.364,-2.713 -4.491,-2.776 -4.6,-2.833C-4.708,-2.89 -4.817,-2.943 -4.927,-2.99C-6.146,-3.591 -7.07,-4.304 -7.7,-5.129C-8.33,-5.954 -8.711,-6.802 -8.843,-7.675C-8.976,-8.549 -8.889,-9.407 -8.584,-10.25C-8.278,-11.094 -7.804,-11.841 -7.159,-12.495C-6.514,-13.148 -5.738,-13.653 -4.83,-14.008C-3.922,-14.363 -2.922,-14.5 -1.834,-14.413C-0.611,-14.316 0.416,-14.027 1.245,-13.551C2.073,-13.076 2.744,-12.572 3.257,-12.043C3.771,-11.513 4.254,-10.831 4.706,-9.997C2.819,-9.122 1.878,-8.683 0,-7.8" style="fill:rgb(17,61,55);fill-rule:nonzero;"/>
    </g>
    <g transform="matrix(4.166667,0,0,4.166667,2772.636667,3034.154583)">
        <path d="M0,15.447C0.753,8.258 1.13,4.664 1.882,-2.525C3.938,-2.31 4.965,-2.199 7.02,-1.974C9.078,2.215 10.094,4.311 12.102,8.51C12.578,4.42 12.815,2.375 13.291,-1.715C15.345,-1.476 16.372,-1.354 18.425,-1.105C17.499,6.525 17.036,10.341 16.11,17.972C14.095,17.727 13.088,17.608 11.073,17.373C9.032,13.644 8.001,11.783 5.917,8.064C5.568,11.234 5.394,12.819 5.046,15.989C3.028,15.767 2.019,15.658 0,15.447" style="fill:rgb(17,61,55);fill-rule:nonzero;"/>
    </g>
    <g transform="matrix(4.166667,0,0,4.166667,2891.304583,3060.259583)">
        <path d="M0,4.849C-0.185,2.533 -0.279,1.375 -0.47,-0.941C-1.39,1.229 -1.849,2.314 -2.762,4.486C-1.657,4.629 -1.105,4.702 0,4.849M-11.03,11.194C-7.809,3.371 -6.176,-0.535 -2.864,-8.333C-0.055,-7.972 1.35,-7.787 4.157,-7.406C4.802,0.698 5.108,4.75 5.685,12.852C3.683,12.979 2.683,13.045 0.684,13.182C0.572,11.902 0.516,11.262 0.401,9.983C-1.662,9.706 -2.694,9.57 -4.758,9.304C-5.399,10.824 -5.718,11.583 -6.356,13.104C-8.222,12.335 -9.157,11.953 -11.03,11.194" style="fill:rgb(17,61,55);fill-rule:nonzero;"/>
    </g>
    <g transform="matrix(4.166667,0,0,4.166667,2975.781667,3097.6025)">
        <path d="M0,-6.695C-0.17,-7.099 -0.377,-7.422 -0.619,-7.667C-0.862,-7.911 -1.196,-8.132 -1.619,-8.328C-2.043,-8.524 -2.596,-8.639 -3.264,-8.66C-4.163,-8.687 -4.913,-8.411 -5.497,-7.846C-6.082,-7.282 -6.526,-6.584 -6.83,-5.752C-7.135,-4.92 -7.306,-4.04 -7.345,-3.113C-7.385,-2.187 -7.302,-1.378 -7.097,-0.688C-6.893,0.002 -6.577,0.586 -6.151,1.063C-5.725,1.541 -5.183,1.819 -4.527,1.899C-3.835,1.983 -3.273,1.909 -2.845,1.671C-2.417,1.435 -2.084,1.161 -1.844,0.847C-1.605,0.535 -1.405,0.099 -1.242,-0.461C0.767,-0.064 1.772,0.137 3.779,0.545C3.587,1.271 3.369,1.892 3.125,2.411C2.88,2.93 2.549,3.484 2.132,4.073C1.715,4.662 1.178,5.196 0.522,5.672C-0.134,6.149 -0.923,6.511 -1.846,6.758C-2.769,7.006 -3.851,7.048 -5.078,6.908C-6.009,6.801 -6.858,6.576 -7.613,6.218C-8.368,5.86 -9.033,5.408 -9.61,4.861C-10.187,4.313 -10.676,3.683 -11.079,2.971C-11.481,2.26 -11.794,1.494 -12.026,0.691C-12.314,-0.307 -12.478,-1.369 -12.493,-2.482C-12.508,-3.595 -12.398,-4.691 -12.159,-5.769C-11.921,-6.846 -11.557,-7.868 -11.063,-8.834C-10.57,-9.8 -9.947,-10.654 -9.194,-11.393C-8.441,-12.134 -7.559,-12.713 -6.549,-13.132C-5.539,-13.55 -4.415,-13.743 -3.178,-13.71C-2.097,-13.681 -1.14,-13.522 -0.31,-13.236C0.521,-12.95 1.234,-12.6 1.83,-12.188C2.426,-11.776 2.924,-11.329 3.325,-10.852C3.726,-10.374 4.043,-9.928 4.279,-9.513C4.513,-9.099 4.724,-8.622 4.91,-8.083C2.943,-7.533 1.961,-7.255 0,-6.695" style="fill:rgb(17,61,55);fill-rule:nonzero;"/>
    </g>
    <g transform="matrix(4.166667,0,0,4.166667,3029.440833,3137.286667)">
        <path d="M0,-20.797C-0.349,-18.688 -0.523,-17.634 -0.871,-15.526C1.353,-17.245 2.469,-18.101 4.712,-19.808C6.007,-18.215 6.651,-17.417 7.935,-15.819C5.104,-13.689 3.696,-12.618 0.894,-10.468C2.8,-6.869 3.743,-5.067 5.607,-1.46C3.805,-0.547 2.906,-0.089 1.113,0.832C-0.3,-1.894 -1.013,-3.256 -2.449,-5.977C-2.791,-3.912 -2.961,-2.88 -3.302,-0.816C-5.308,-1.147 -6.311,-1.31 -8.317,-1.632C-7.037,-9.631 -6.397,-13.63 -5.117,-21.629C-3.07,-21.302 -2.046,-21.135 0,-20.797" style="fill:rgb(17,61,55);fill-rule:nonzero;"/>
    </g>
    <g transform="matrix(4.166667,0,0,4.166667,3108.739167,3121.435417)">
        <path d="M0,-7.288C-0.098,-7.496 -0.234,-7.703 -0.41,-7.904C-0.569,-8.086 -0.796,-8.261 -1.086,-8.428C-1.376,-8.595 -1.756,-8.722 -2.226,-8.809C-2.433,-8.847 -2.652,-8.844 -2.883,-8.801C-3.115,-8.758 -3.284,-8.685 -3.39,-8.581C-3.496,-8.477 -3.517,-8.338 -3.451,-8.165C-3.386,-7.992 -3.15,-7.793 -2.745,-7.567C-2.589,-7.462 -2.432,-7.368 -2.273,-7.282C-2.114,-7.195 -1.969,-7.092 -1.835,-6.973C-1.108,-6.498 -0.388,-5.933 0.324,-5.278C1.036,-4.623 1.595,-3.892 2.007,-3.097C2.444,-2.256 2.7,-1.415 2.763,-0.577C2.826,0.261 2.75,1.063 2.537,1.829C2.324,2.595 1.982,3.299 1.514,3.941C1.046,4.583 0.49,5.132 -0.153,5.59C-0.796,6.048 -1.512,6.392 -2.303,6.625C-3.093,6.856 -3.914,6.928 -4.757,6.852C-5.339,6.799 -5.914,6.687 -6.474,6.51C-7.034,6.332 -7.57,6.073 -8.083,5.735C-8.943,5.201 -9.664,4.494 -10.244,3.614C-10.825,2.734 -11.188,1.667 -11.331,0.411C-9.31,0.119 -8.298,-0.024 -6.272,-0.305C-6.201,0.257 -5.967,0.693 -5.571,1.001C-5.176,1.311 -4.727,1.487 -4.242,1.543C-3.926,1.58 -3.588,1.545 -3.24,1.429C-2.892,1.313 -2.654,1.07 -2.56,0.715C-2.47,0.38 -2.492,0.04 -2.607,-0.274C-2.723,-0.589 -2.89,-0.886 -3.109,-1.164C-3.328,-1.441 -3.575,-1.695 -3.851,-1.926C-4.128,-2.156 -4.396,-2.353 -4.656,-2.514C-4.796,-2.596 -4.917,-2.67 -5.021,-2.736C-5.124,-2.802 -5.229,-2.864 -5.335,-2.921C-6.501,-3.625 -7.364,-4.415 -7.922,-5.291C-8.481,-6.168 -8.789,-7.047 -8.846,-7.927C-8.904,-8.808 -8.744,-9.657 -8.367,-10.471C-7.99,-11.285 -7.452,-11.989 -6.752,-12.584C-6.052,-13.179 -5.233,-13.615 -4.295,-13.891C-3.358,-14.166 -2.346,-14.216 -1.266,-14.036C-0.053,-13.833 0.948,-13.457 1.736,-12.91C2.523,-12.365 3.15,-11.806 3.618,-11.234C4.086,-10.661 4.51,-9.94 4.891,-9.07C2.93,-8.362 1.952,-8.006 0,-7.288" style="fill:rgb(17,61,55);fill-rule:nonzero;"/>
    </g>
</svg>
